# xmcd
#
# Track frame offsets:
#	150
#	16977
#	38868
#	57501
#	75486
#	93333
#	107274
#	123975
#	140928
#	159183
#	177915
#	195735
#	216144
#
# Disc length: 3095 seconds
#
# Revision: 2
# Processed by: cddbd v1.5.2PL0 Copyright (c) Steve Scherf et al.
# Submitted via: EasyCDDAExtractor 15.3.0.1
#
DISCID=a80c150d
DTITLE=Suvi Ter‰sniska - Joulun Henki 2014
DYEAR=2014
DGENRE=Suomi Joululaulu
TTITLE0=Suvi Ter‰sniska - Joulun Henki
TTITLE1=Suvi Ter‰sniska - Taivas Syliss‰ni
TTITLE2=Suvi Ter‰sniska - T‰htitarha
TTITLE3=Suvi Ter‰sniska - Sielulintu
TTITLE4=Suvi Ter‰sniska - Syd‰meni Vaeltaa
TTITLE5=Suvi Ter‰sniska - J‰‰kukat
TTITLE6=Suvi Ter‰sniska - Tule Joulu Kultainen
TTITLE7=Suvi Ter‰sniska - T‰htien P‰‰ll‰
TTITLE8=Suvi Ter‰sniska - Joululaulu (Hiljaa Leijaa Maahan Hiutaleet)
TTITLE9=Suvi Ter‰sniska - T‰hti T‰hdist‰ Kirkkain
TTITLE10=Suvi Ter‰sniska - Konsta Jylh‰n Joululaulu
TTITLE11=Suvi Ter‰sniska - Joulu On T‰‰ll‰ Kuunnelkaa
TTITLE12=Suvi Ter‰sniska Ja Olli Lindholm - Maailman Kaunein Yst‰vyys
EXTD=
EXTT0=
EXTT1=
EXTT2=
EXTT3=
EXTT4=
EXTT5=
EXTT6=
EXTT7=
EXTT8=
EXTT9=
EXTT10=
EXTT11=
EXTT12=
PLAYORDER=
